<svg width="50" height="48" fill="none" xmlns="http://www.w3.org/2000/svg"><g clip-path="url(#clip0)" fill="#C9B493"><path d="M50 24.018c-.035-.036-.071-.036-.107-.036-.799-.053-1.598-.107-2.379-.142-2.237-.125-4.474-.25-6.712-.446-1.278-.107-2.556-.232-3.817-.482-.48-.089-.959-.196-1.403-.428-.515-.267-.568-.588-.16-1.016.214-.232.48-.392.746-.553.835-.517 1.74-.927 2.646-1.337l.48-.214c-.054-.018-.09-.018-.125 0-1.083.232-2.166.464-3.267.553-.39.035-.8.053-1.172-.072-.355-.107-.462-.32-.355-.66.071-.249.213-.463.373-.677.39-.517.834-.98 1.296-1.426 1.97-1.89 4.102-3.602 6.197-5.332.959-.784 1.917-1.569 2.876-2.371.036-.018.071-.036.089-.09-.053-.017-.089.019-.107.054-.07.036-.124.072-.195.107-2.628 1.694-5.256 3.424-7.937 5.029-1.065.641-2.148 1.265-3.285 1.765a4.244 4.244 0 01-1.083.32c-.426.054-.639-.16-.639-.57 0-.071.018-.125.018-.196.053-.285.142-.57.248-.838.409-1.017.96-1.962 1.492-2.907.035-.053.106-.107.071-.214-.053.072-.107.125-.16.179a28.843 28.843 0 01-1.758 1.854c-.39.375-.799.75-1.296.98-.444.215-.728.072-.816-.41-.107-.552-.054-1.105.035-1.657.213-1.57.586-3.103.941-4.636.64-2.621 1.332-5.207 2.006-7.81.018-.054.054-.09 0-.16-.017.053-.035.088-.053.142-1.154 2.978-2.273 5.955-3.516 8.88-.497 1.194-1.012 2.389-1.686 3.494-.196.321-.39.624-.693.856-.32.25-.568.214-.799-.124a2.76 2.76 0 01-.337-.82c-.284-1.017-.39-2.07-.515-3.103-.018-.16-.035-.303-.053-.5-.071.09-.053.143-.053.179a31.13 31.13 0 01-.356 2.567c-.106.535-.213 1.088-.479 1.57-.249.463-.568.499-.959.142-.23-.232-.426-.5-.586-.767-.532-.856-.94-1.765-1.331-2.674-1.19-2.728-2.255-5.528-3.32-8.291-.232-.589-.445-1.177-.675-1.748.337 1.337.674 2.657 1.012 3.976.692 2.675 1.402 5.35 1.9 8.095.124.714.23 1.445.177 2.176-.053.749-.408.927-1.048.553-.337-.197-.639-.464-.94-.732-.71-.641-1.332-1.355-1.972-2.05-.053-.053-.07-.143-.16-.125.196.339.391.696.587 1.034.426.785.87 1.57 1.154 2.425.07.214.142.446.142.678 0 .392-.213.606-.604.553-.248-.018-.48-.09-.71-.16-.994-.357-1.918-.892-2.823-1.41-2.664-1.55-5.238-3.245-7.848-4.92-.373-.25-.764-.482-1.137-.714-.017-.036-.035-.053-.088-.036l.053.054c.106.09.195.178.302.25 2.556 2.104 5.149 4.19 7.635 6.4.799.714 1.598 1.427 2.272 2.265.231.268.444.553.55.91.09.285-.017.481-.301.606a1.612 1.612 0 01-.64.107c-.78.018-1.562-.125-2.325-.268-.55-.107-1.101-.214-1.723-.338.09.053.125.07.16.089.32.142.657.285.977.446.816.374 1.616.766 2.361 1.283.213.143.409.303.569.517.195.268.16.5-.09.696-.195.16-.425.25-.656.32-.675.215-1.385.34-2.095.429-1.936.25-3.889.392-5.824.517-1.652.107-3.32.196-4.972.303-.373.018-.763.053-1.136.071.23.036.444.054.674.072l3.694.213c1.917.125 3.835.232 5.735.428 1.136.107 2.272.232 3.373.482.409.089.817.196 1.172.446.284.214.32.445.107.73a1.888 1.888 0 01-.48.446c-.461.34-.959.607-1.456.856-.657.34-1.314.624-1.988.927a.244.244 0 00.195 0 27.12 27.12 0 012.397-.445c.568-.072 1.154-.143 1.74-.054.55.09.71.393.462.892-.125.285-.32.535-.515.766-.675.82-1.456 1.534-2.255 2.23-2.13 1.89-4.333 3.69-6.534 5.491-.48.392-.977.767-1.42 1.195-.018 0-.036.018-.072.018l.018.017c.036 0 .036 0 .036-.035.07.018.106-.036.16-.071.283-.179.568-.357.852-.553 2.752-1.766 5.486-3.584 8.31-5.207.834-.481 1.668-.945 2.574-1.266.23-.089.462-.142.71-.16.409-.036.622.16.604.553 0 .07-.018.142-.018.213a4.867 4.867 0 01-.355 1.088c-.426.98-.959 1.908-1.51 2.853.107-.018.143-.09.178-.143.657-.73 1.314-1.462 2.042-2.121.338-.304.675-.607 1.101-.767.426-.178.692-.036.781.41.089.428.053.856.018 1.284-.107 1.123-.355 2.228-.604 3.334-.657 2.889-1.42 5.742-2.166 8.612-.089.357-.177.696-.284 1.052.195-.374.337-.767.497-1.159 1.19-3.067 2.326-6.134 3.676-9.147.39-.874.799-1.765 1.349-2.55.142-.214.302-.41.515-.552.284-.214.515-.179.728.107.142.178.23.392.284.606.32.98.426 1.979.55 2.995.036.303.072.624.107.928.053-.018.053-.054.053-.072.053-.606.125-1.212.213-1.819.107-.695.213-1.39.427-2.05.088-.25.177-.481.355-.678.177-.196.355-.214.585-.089.16.09.285.214.391.357.195.232.355.481.515.749.48.802.87 1.658 1.225 2.514 1.279 2.924 2.397 5.92 3.551 8.897.142.375.302.767.444 1.142-.266-1.124-.568-2.247-.852-3.37-.71-2.746-1.438-5.474-1.97-8.256-.16-.856-.32-1.712-.267-2.603.018-.179.035-.34.124-.5.089-.196.23-.267.444-.25.16.019.302.09.444.161.48.268.888.66 1.296 1.035.64.606 1.225 1.265 1.811 1.925.018-.107-.053-.16-.089-.232-.497-.873-.994-1.747-1.402-2.674-.16-.392-.32-.785-.355-1.213-.036-.481.195-.677.674-.624.284.036.568.125.835.232 1.19.482 2.29 1.123 3.391 1.783 2.752 1.64 5.433 3.406 8.132 5.153.053.036.107.107.195.09-.035-.036-.053-.072-.088-.09-.586-.481-1.19-.963-1.776-1.462-2.184-1.8-4.386-3.584-6.48-5.492-.711-.66-1.439-1.32-2.025-2.086-.16-.214-.32-.446-.408-.695-.124-.357-.018-.571.337-.696.213-.071.444-.089.675-.089 1.154.018 2.29.268 3.409.5.124.017.23.07.426.053-.142-.072-.23-.107-.302-.143-1.012-.446-2.024-.91-2.947-1.515-.267-.179-.515-.357-.71-.624-.178-.268-.142-.482.106-.678.16-.143.355-.214.568-.285.64-.214 1.296-.34 1.953-.428 1.811-.268 3.623-.393 5.451-.517 1.847-.125 3.694-.232 5.54-.34.267.054.64.019 1.03 0zm-19.531-4.511a.802.802 0 00-.444.214c-.249.196-.213.481-.231.749-.071.695-.071 1.373-.124 2.068-.125 1.39-.995 2.318-2.22 2.692-.532.16-1.065.25-1.616.268-.106 0-.142.035-.142.142v3.192c0 .178.036.357.072.517.106.357.337.535.674.606.178.036.355.054.533.054.089 0 .142 0 .142.125 0 .107-.071.089-.124.089h-3.871c-.053 0-.142.036-.142-.09 0-.106.053-.124.142-.124.213 0 .444-.036.657-.107.355-.107.497-.357.568-.678.035-.124.035-.267.035-.41v-3.12c0-.143-.035-.196-.195-.214-.604-.018-1.207-.107-1.775-.321-.906-.357-1.545-.963-1.847-1.908-.195-.624-.23-1.248-.248-1.872-.018-.392-.018-.785-.072-1.177-.053-.428-.124-.57-.621-.678-.053-.017-.16 0-.142-.107 0-.089 0-.142.124-.124.8.071 1.438.392 1.811 1.14.178.34.213.732.267 1.106.088.66.16 1.338.302 1.997.16.731.692 1.177 1.402 1.373.267.072.55.125.835.125.142 0 .177-.035.177-.178v-3.96c0-.25-.035-.48-.124-.73a.702.702 0 00-.462-.41 2.153 2.153 0 00-.674-.126c-.09 0-.142-.017-.142-.124 0-.125.07-.107.142-.107h3.853c.07 0 .142-.018.142.107 0 .124-.071.107-.16.124-.284.036-.568.054-.835.197-.213.125-.32.32-.372.535a2.757 2.757 0 00-.072.535v3.94c0 .16.036.196.196.196.657-.018 1.243-.16 1.722-.66.266-.285.444-.588.515-.98l.373-2.193c.07-.375.142-.731.355-1.052.39-.589.976-.82 1.651-.856.071 0 .071.035.071.089-.017.053 0 .107-.106.125z"/><path d="M20.135 6.312c.053.125.106.143.23.107a16.58 16.58 0 013.747-.588c1.9-.09 3.764.089 5.593.588.142.036.178-.018.213-.125.142-.356.267-.713.426-1.07.054-.142.036-.178-.106-.214a19.637 19.637 0 00-5.185-.695c-.55 0-1.1.036-1.651.071-1.225.09-2.415.321-3.587.642-.124.036-.124.072-.088.179.124.374.266.73.408 1.105zM29.9 41.67c-.035-.107-.088-.125-.195-.089-.248.071-.48.125-.728.178-1.616.375-3.267.5-4.918.41a18.505 18.505 0 01-3.711-.588c-.124-.036-.16 0-.195.107-.142.357-.284.731-.426 1.088-.054.124-.036.16.106.214a19.8 19.8 0 005.203.695c.55 0 1.1-.036 1.65-.071a20.154 20.154 0 003.587-.642c.107-.036.125-.072.071-.16-.16-.375-.301-.767-.444-1.142zm9.127-6.151a16.98 16.98 0 01-2.45 2.478 18.216 18.216 0 01-5.007 2.96c-.16.053-.196.107-.142.285.106.357.195.713.266 1.07.035.143.07.178.213.107a19.618 19.618 0 006.499-4.065 18.28 18.28 0 002.006-2.211c-.355-.232-.728-.446-1.065-.696-.125-.089-.214-.053-.32.072zM18.306 42.33c.089-.375.178-.731.284-1.088.053-.16 0-.214-.142-.285-2.166-.838-4.084-2.069-5.788-3.655a17.894 17.894 0 01-1.687-1.801c-.053-.054-.089-.16-.195-.09l-1.172.75c.053.07.089.124.142.178a20.518 20.518 0 003.693 3.548 19.952 19.952 0 004.688 2.55c.124.035.16.018.177-.107zM31.73 5.67c-.09.357-.16.731-.267 1.07-.053.178-.018.25.16.303a17.972 17.972 0 015.753 3.62 20.6 20.6 0 011.704 1.818c.053.072.089.16.213.09.373-.25.764-.482 1.154-.732a169.89 169.89 0 00-.16-.213 19.303 19.303 0 00-2.663-2.729 19.628 19.628 0 00-5.682-3.334c-.142-.036-.195-.018-.213.107zm-20.775 6.865c.231-.268.462-.553.693-.803 1.917-2.104 4.19-3.673 6.836-4.689.124-.053.16-.107.124-.232-.089-.356-.178-.695-.266-1.052-.054-.232-.054-.232-.284-.142a19.597 19.597 0 00-6.393 4.011 17.498 17.498 0 00-2.041 2.247c.39.25.78.482 1.154.731.07.054.106 0 .177-.071zM5.664 23.251a22.84 22.84 0 011.1-.071c.125 0 .16-.036.16-.16.018-.34.036-.678.072-1.017.195-1.944.71-3.78 1.509-5.563.373-.803.799-1.587 1.278-2.336.036-.071.125-.125.018-.214-.32-.267-.657-.535-.976-.802-.071-.054-.107-.054-.16.018-.071.124-.16.25-.249.392-1.793 2.87-2.787 5.99-3 9.432v.107c-.018.196.053.25.248.214zm35.725-10.074c-.072-.125-.125-.125-.231-.036-.285.25-.569.5-.87.731-.125.09-.125.16-.036.286.48.73.906 1.515 1.26 2.318a17.981 17.981 0 011.599 6.508c0 .16.035.214.213.231.302 0 .621.036.923.054.444.036.355.071.355-.339a20.001 20.001 0 00-.799-4.564 19.479 19.479 0 00-2.414-5.19zM6.232 29.67a19.893 19.893 0 002.415 5.171c.089.125.142.125.23.036.285-.25.569-.5.87-.714.125-.089.125-.16.036-.285a17.074 17.074 0 01-1.598-3.102 18.184 18.184 0 01-1.26-5.742c0-.125-.036-.178-.16-.178-.373-.018-.746-.054-1.119-.071-.195-.018-.195-.018-.195.196v.231c.089 1.498.337 2.996.781 4.458zm38.122-4.921c-.355.018-.71.053-1.066.071-.124 0-.177.054-.177.178-.018.464-.071.91-.124 1.356a18.385 18.385 0 01-1.563 5.384 18.925 18.925 0 01-1.172 2.122c-.035.072-.124.125-.018.214.32.268.657.535.977.803.071.053.107.053.16-.018.07-.125.142-.232.23-.357 1.812-2.87 2.806-6.009 3.02-9.468v-.089c-.019-.214-.019-.214-.267-.196zM4.83 9.29s0 .018 0 0c0 .018.017.018.053.035 0-.035-.018-.035-.053-.035zm40.341 29.456s.018 0 0 0c.018-.036.018-.054-.018-.071-.018.035 0 .053.018.07z"/></g><defs><clipPath id="clip0"><path fill="#fff" d="M0 0h50v48H0z"/></clipPath></defs></svg>