<svg width="50" height="48" viewBox="0 0 50 48" fill="none" xmlns="http://www.w3.org/2000/svg">
<g clip-path="url(#clip0)">
<path d="M50 24.0178C49.9645 23.9822 49.9289 23.9822 49.8934 23.9822C49.0944 23.9287 48.2954 23.8752 47.5142 23.8395C45.277 23.7147 43.0397 23.5899 40.8025 23.3938C39.5241 23.2868 38.2457 23.162 36.985 22.9123C36.5056 22.8232 36.0262 22.7162 35.5823 22.4844C35.0674 22.217 35.0142 21.896 35.4225 21.4681C35.6356 21.2363 35.902 21.0758 36.1683 20.9153C37.0028 20.3982 37.9083 19.9881 38.8139 19.578C38.9737 19.5067 39.1335 19.4354 39.2933 19.3641C39.24 19.3462 39.2045 19.3462 39.169 19.3641C38.0859 19.5959 37.0028 19.8277 35.902 19.9168C35.5113 19.9525 35.1029 19.9703 34.7301 19.8455C34.375 19.7385 34.2684 19.5245 34.375 19.1857C34.446 18.9361 34.588 18.7222 34.7478 18.5082C35.1385 17.9911 35.5823 17.5275 36.044 17.0817C38.0149 15.1917 40.1456 13.48 42.2407 11.7504C43.1995 10.9658 44.1583 10.1813 45.1171 9.37891C45.1527 9.36108 45.1882 9.34325 45.2059 9.28976C45.1527 9.27193 45.1171 9.30759 45.0994 9.34325C45.0284 9.37891 44.9751 9.41457 44.9041 9.45023C42.2762 11.1441 39.6484 12.8737 36.9673 14.4785C35.902 15.1204 34.8189 15.7444 33.6825 16.2437C33.3451 16.3863 32.99 16.5112 32.5994 16.5646C32.1733 16.6181 31.9602 16.4042 31.9602 15.9941C31.9602 15.9227 31.9779 15.8693 31.9779 15.7979C32.0312 15.5126 32.12 15.2274 32.2265 14.9599C32.6349 13.9435 33.1853 12.9985 33.718 12.0535C33.7535 12 33.8245 11.9465 33.789 11.8395C33.7358 11.9109 33.6825 11.9643 33.6292 12.0178C33.061 12.6597 32.4929 13.2838 31.8714 13.8722C31.4808 14.2467 31.0724 14.6211 30.5752 14.8529C30.1314 15.0669 29.8473 14.9242 29.7585 14.4428C29.652 13.8901 29.7052 13.3373 29.794 12.7846C30.0071 11.2155 30.3799 9.68203 30.7351 8.1486C31.3743 5.5275 32.0667 2.94206 32.7414 0.33879C32.7592 0.285298 32.7947 0.249637 32.7414 0.178314C32.7237 0.231806 32.7059 0.267468 32.6882 0.320959C31.5341 3.29867 30.4154 6.27638 29.1725 9.2006C28.6754 10.3953 28.1605 11.5899 27.4858 12.6954C27.2904 13.0164 27.0951 13.3195 26.7933 13.5513C26.4737 13.8009 26.2251 13.7652 25.9943 13.4265C25.8345 13.1768 25.7279 12.8915 25.6569 12.6063C25.3728 11.5899 25.2663 10.5379 25.142 9.50373C25.1243 9.34325 25.1065 9.2006 25.0887 9.00447C25.0177 9.09362 25.0355 9.14711 25.0355 9.18277C24.9467 10.0386 24.8402 10.9123 24.6804 11.7504C24.5738 12.2853 24.4673 12.838 24.201 13.3195C23.9524 13.7831 23.6328 13.8187 23.2422 13.4621C23.0113 13.2303 22.816 12.9629 22.6562 12.6954C22.1235 11.8395 21.7152 10.9302 21.3245 10.0208C20.1349 7.29273 19.0696 4.49332 18.0042 1.72958C17.7734 1.14117 17.5603 0.552757 17.3295 -0.0178223C17.6669 1.31947 18.0042 2.63894 18.3416 3.9584C19.0341 6.633 19.7443 9.30759 20.2414 12.0535C20.3657 12.7667 20.4723 13.4978 20.419 14.2288C20.3657 14.9777 20.0106 15.156 19.3714 14.7816C19.0341 14.5855 18.7322 14.318 18.4304 14.0505C17.7201 13.4086 17.0987 12.6954 16.4595 12C16.4062 11.9465 16.3885 11.8574 16.2997 11.8752C16.495 12.214 16.6903 12.5706 16.8856 12.9094C17.3118 13.6939 17.7556 14.4785 18.0397 15.3343C18.1108 15.5483 18.1818 15.7801 18.1818 16.0119C18.1818 16.4042 17.9687 16.6181 17.5781 16.5646C17.3295 16.5468 17.0987 16.4755 16.8679 16.4042C15.8735 16.0476 14.9502 15.5126 14.0447 14.9956C11.3814 13.4443 8.80678 11.7504 6.1967 10.0743C5.82383 9.82468 5.4332 9.59288 5.06034 9.36108C5.04258 9.32542 5.02482 9.30759 4.97156 9.32542C4.98931 9.34325 5.00707 9.36108 5.02482 9.37891C5.13136 9.46806 5.22014 9.55722 5.32667 9.62854C7.88349 11.7326 10.4758 13.8187 12.9616 16.0297C13.7606 16.743 14.5596 17.4562 15.2343 18.2942C15.4652 18.5617 15.6782 18.847 15.7848 19.2036C15.8735 19.4889 15.767 19.685 15.4829 19.8098C15.2699 19.899 15.0568 19.9168 14.8437 19.9168C14.0625 19.9346 13.2812 19.792 12.5177 19.6493C11.9673 19.5424 11.4169 19.4354 10.7954 19.3106C10.8842 19.3641 10.9197 19.3819 10.9552 19.3997C11.2748 19.5424 11.6122 19.685 11.9318 19.8455C12.7485 20.2199 13.5476 20.6122 14.2933 21.1293C14.5064 21.2719 14.7017 21.4324 14.8615 21.6464C15.0568 21.9138 15.0213 22.1456 14.7727 22.3418C14.5774 22.5022 14.3466 22.5914 14.1157 22.6627C13.441 22.8767 12.7308 23.0015 12.0206 23.0907C10.0852 23.3403 8.13207 23.4829 6.1967 23.6077C4.54542 23.7147 2.87639 23.8039 1.22511 23.9109C0.852239 23.9287 0.461614 23.9644 0.0887451 23.9822C0.319569 24.0178 0.532637 24.0357 0.763461 24.0535C1.9886 24.1248 3.2315 24.1962 4.45664 24.2675C6.37426 24.3923 8.29187 24.4993 10.1917 24.6954C11.3281 24.8024 12.4645 24.9272 13.5653 25.1768C13.9737 25.266 14.3821 25.373 14.7372 25.6226C15.0213 25.8366 15.0568 26.0684 14.8437 26.3537C14.7194 26.532 14.5419 26.6746 14.3643 26.7994C13.9027 27.1382 13.4055 27.4057 12.9083 27.6553C12.2514 27.9941 11.5944 28.2794 10.9197 28.5825C11.0085 28.6181 11.0618 28.6003 11.115 28.5825C11.914 28.4042 12.6953 28.2437 13.512 28.1367C14.0802 28.0654 14.6662 27.9941 15.2521 28.0832C15.8025 28.1724 15.9623 28.4755 15.7137 28.9748C15.5895 29.26 15.3941 29.5097 15.1988 29.7415C14.5241 30.5617 13.7429 31.2749 12.9439 31.9703C10.8132 33.8603 8.61147 35.6612 6.40977 37.4621C5.93036 37.8544 5.4332 38.2288 4.98931 38.6568C4.97156 38.6568 4.9538 38.6746 4.91829 38.6746L4.93605 38.6924C4.97156 38.6924 4.97156 38.6924 4.97156 38.6568C5.04258 38.6746 5.07809 38.6211 5.13136 38.5855C5.41545 38.4072 5.69954 38.2288 5.98363 38.0327C8.73576 36.2675 11.4701 34.4488 14.2933 32.8262C15.1278 32.3447 15.9623 31.8811 16.8679 31.5602C17.0987 31.471 17.3295 31.4176 17.5781 31.3997C17.9865 31.3641 18.1995 31.5602 18.1818 31.9525C18.1818 32.0238 18.164 32.0951 18.164 32.1664C18.093 32.5409 17.9687 32.8975 17.8089 33.2541C17.3828 34.2348 16.8501 35.162 16.2997 36.107C16.4062 36.0892 16.4417 36.0178 16.4772 35.9644C17.1342 35.2333 17.7912 34.5022 18.5191 33.8425C18.8565 33.5394 19.1939 33.2363 19.62 33.0758C20.0461 32.8975 20.3125 33.0401 20.4012 33.4859C20.49 33.9138 20.4545 34.3418 20.419 34.7697C20.3125 35.893 20.0639 36.9985 19.8153 38.104C19.1583 40.9926 18.3949 43.8455 17.6491 46.7162C17.5603 47.0728 17.4716 47.4116 17.365 47.7682C17.5603 47.3938 17.7024 47.0015 17.8622 46.6092C19.0518 43.5424 20.1882 40.4755 21.5376 37.4621C21.9282 36.5884 22.3366 35.6969 22.887 34.9123C23.0291 34.6984 23.1889 34.5022 23.402 34.3596C23.686 34.1456 23.9169 34.1813 24.1299 34.4666C24.272 34.6449 24.3608 34.8589 24.414 35.0728C24.7336 36.0535 24.8402 37.052 24.9645 38.0684C25 38.3715 25.0355 38.6924 25.071 38.9956C25.1243 38.9777 25.1243 38.9421 25.1243 38.9242C25.1775 38.318 25.2485 37.7118 25.3373 37.1055C25.4439 36.4101 25.5504 35.7147 25.7635 35.055C25.8522 34.8054 25.941 34.5736 26.1186 34.3774C26.2961 34.1813 26.4737 34.1635 26.7045 34.2883C26.8643 34.3774 26.9886 34.5022 27.0951 34.6449C27.2904 34.8767 27.4502 35.1263 27.61 35.3938C28.0895 36.1962 28.4801 37.052 28.8352 37.9079C30.1136 40.8321 31.2322 43.8277 32.3863 46.8054C32.5284 47.1798 32.6882 47.5721 32.8302 47.9465C32.5639 46.8232 32.262 45.6999 31.9779 44.5765C31.2677 41.8306 30.5397 39.1025 30.0071 36.321C29.8473 35.4651 29.6875 34.6092 29.7407 33.7177C29.7585 33.5394 29.7762 33.3789 29.865 33.2184C29.9538 33.0223 30.0958 32.951 30.3089 32.9688C30.4687 32.9866 30.6108 33.058 30.7528 33.1293C31.2322 33.3967 31.6406 33.789 32.049 34.1635C32.6882 34.7697 33.2741 35.4294 33.86 36.0892C33.8778 35.9822 33.8068 35.9287 33.7713 35.8574C33.2741 34.9837 32.777 34.11 32.3686 33.1828C32.2088 32.7905 32.049 32.3982 32.0135 31.9703C31.9779 31.4889 32.2088 31.2927 32.6882 31.3462C32.9723 31.3819 33.2564 31.471 33.5227 31.578C34.7123 32.0595 35.8132 32.7014 36.914 33.3611C39.6662 35.0015 42.3473 36.7667 45.0461 38.5141C45.0994 38.5498 45.1527 38.6211 45.2414 38.6033C45.2059 38.5676 45.1882 38.532 45.1527 38.5141C44.5667 38.0327 43.963 37.5513 43.3771 37.052C41.1931 35.2511 38.9914 33.4681 36.8963 31.5602C36.186 30.9005 35.4581 30.2407 34.8721 29.474C34.7123 29.26 34.5525 29.0282 34.4637 28.7786C34.3395 28.422 34.446 28.208 34.8011 28.0832C35.0142 28.0119 35.245 27.9941 35.4758 27.9941C36.6299 28.0119 37.7663 28.2615 38.8849 28.4933C39.0092 28.5112 39.1157 28.5647 39.311 28.5468C39.169 28.4755 39.0802 28.4398 39.0092 28.4042C37.9971 27.9584 36.9851 27.4948 36.0618 26.8886C35.7954 26.7103 35.5468 26.532 35.3515 26.2645C35.174 25.997 35.2095 25.7831 35.4581 25.5869C35.6179 25.4443 35.8132 25.373 36.0262 25.3016C36.6654 25.0877 37.3224 24.9629 37.9794 24.8737C39.7904 24.6063 41.6015 24.4814 43.4304 24.3566C45.277 24.2318 47.1235 24.1248 48.9701 24.0178C49.2365 24.0713 49.6093 24.0357 50 24.0178ZM30.4687 19.5067C30.2912 19.5245 30.1491 19.6137 30.0248 19.7207C29.7762 19.9168 29.8118 20.2021 29.794 20.4696C29.723 21.1649 29.723 21.8425 29.6697 22.5379C29.5454 23.9287 28.6754 24.8559 27.4502 25.2303C26.9176 25.3908 26.3849 25.48 25.8345 25.4978C25.7279 25.4978 25.6924 25.5334 25.6924 25.6404C25.6924 26.7103 25.6924 27.7623 25.6924 28.8321C25.6924 29.0104 25.7279 29.1887 25.7635 29.3492C25.87 29.7058 26.1008 29.8841 26.4382 29.9554C26.6157 29.9911 26.7933 30.0089 26.9708 30.0089C27.0596 30.0089 27.1129 30.0089 27.1129 30.1337C27.1129 30.2407 27.0419 30.2229 26.9886 30.2229C25.6924 30.2229 24.3963 30.2229 23.1179 30.2229C23.0646 30.2229 22.9758 30.2586 22.9758 30.1337C22.9758 30.0268 23.0291 30.0089 23.1179 30.0089C23.3309 30.0089 23.5618 29.9733 23.7748 29.9019C24.1299 29.795 24.272 29.5453 24.343 29.2244C24.3785 29.0996 24.3785 28.9569 24.3785 28.8143C24.3785 27.7801 24.3785 26.7281 24.3785 25.6939C24.3785 25.5513 24.343 25.4978 24.1832 25.48C23.5795 25.4621 22.9758 25.373 22.4076 25.159C21.5021 24.8024 20.8629 24.1961 20.561 23.2511C20.3657 22.6271 20.3302 22.003 20.3125 21.3789C20.2947 20.9866 20.2947 20.5944 20.2414 20.2021C20.1882 19.7742 20.1172 19.6315 19.62 19.5245C19.5667 19.5067 19.4602 19.5245 19.4779 19.4175C19.4779 19.3284 19.4779 19.2749 19.6022 19.2927C20.4012 19.3641 21.0404 19.685 21.4133 20.4339C21.5909 20.7727 21.6264 21.1649 21.6797 21.5394C21.7684 22.1991 21.8395 22.8767 21.9815 23.5364C22.1413 24.2675 22.674 24.7132 23.3842 24.9094C23.6505 24.9807 23.9346 25.0342 24.2187 25.0342C24.3608 25.0342 24.3963 24.9985 24.3963 24.8559C24.3963 24.1783 24.3963 23.5008 24.3963 22.841C24.3963 22.1991 24.3963 21.5394 24.3963 20.8975C24.3963 20.6479 24.3608 20.4161 24.272 20.1664C24.1832 19.9525 24.0056 19.8098 23.8103 19.7563C23.5973 19.685 23.3664 19.6315 23.1356 19.6315C23.0468 19.6315 22.9936 19.6137 22.9936 19.5067C22.9936 19.3819 23.0646 19.3997 23.1356 19.3997C24.414 19.3997 25.7102 19.3997 26.9886 19.3997C27.0596 19.3997 27.1306 19.3819 27.1306 19.5067C27.1306 19.6315 27.0596 19.6137 26.9708 19.6315C26.6868 19.6672 26.4027 19.685 26.1363 19.8277C25.9233 19.9525 25.8167 20.1486 25.7635 20.3626C25.7279 20.5409 25.6924 20.7192 25.6924 20.8975C25.6924 22.217 25.6924 23.5186 25.6924 24.8381C25.6924 24.9985 25.7279 25.0342 25.8877 25.0342C26.5447 25.0164 27.1306 24.8737 27.61 24.3745C27.8764 24.0892 28.0539 23.786 28.125 23.3938C28.2493 22.6627 28.3735 21.9317 28.4978 21.2006C28.5689 20.8262 28.6399 20.4696 28.8529 20.1486C29.2436 19.5602 29.8295 19.3284 30.5042 19.2927C30.5752 19.2927 30.5752 19.3284 30.5752 19.3819C30.5575 19.4354 30.5752 19.4889 30.4687 19.5067Z" fill="#C9B493"/>
<path d="M20.1349 6.31209C20.1882 6.4369 20.2415 6.45473 20.3658 6.41907C21.5909 6.08029 22.8338 5.88416 24.1122 5.83066C26.0121 5.74151 27.8764 5.91982 29.7052 6.41907C29.8473 6.45473 29.8828 6.40124 29.9183 6.29426C30.0604 5.93765 30.1846 5.58104 30.3444 5.22442C30.3977 5.08178 30.38 5.04612 30.2379 5.01046C28.5334 4.54686 26.8111 4.31506 25.0533 4.31506C24.5028 4.31506 23.9524 4.35072 23.402 4.38639C22.1768 4.47554 20.9872 4.70734 19.8153 5.02829C19.691 5.06395 19.691 5.09961 19.7265 5.20659C19.8508 5.58104 19.9929 5.93765 20.1349 6.31209Z" fill="#C9B493"/>
<path d="M29.9005 41.6702C29.865 41.5632 29.8118 41.5454 29.7052 41.581C29.4566 41.6523 29.2258 41.7058 28.9772 41.7593C27.3615 42.1338 25.7102 42.2586 24.0589 42.1694C22.7983 42.0981 21.5554 41.902 20.348 41.581C20.2237 41.5454 20.1882 41.581 20.1527 41.688C20.0106 42.0446 19.8686 42.4191 19.7265 42.7757C19.6733 42.9005 19.691 42.9361 19.8331 42.9896C21.5376 43.4532 23.2777 43.685 25.0355 43.685C25.5859 43.685 26.1363 43.6494 26.6868 43.6137C27.9119 43.5067 29.1015 43.2928 30.2734 42.9718C30.3799 42.9361 30.3977 42.9005 30.3444 42.8113C30.1846 42.4369 30.0426 42.0446 29.9005 41.6702Z" fill="#C9B493"/>
<path d="M39.027 35.5186C38.299 36.4279 37.4823 37.2481 36.5767 37.997C35.0675 39.2451 33.3984 40.2437 31.5696 40.9569C31.4098 41.0104 31.3743 41.0639 31.4276 41.2422C31.5341 41.5988 31.6229 41.9554 31.6939 42.312C31.7294 42.4547 31.7649 42.4903 31.907 42.419C34.3395 41.4918 36.5057 40.1367 38.4056 38.3536C39.1335 37.6761 39.7905 36.945 40.4119 36.1426C40.0568 35.9108 39.684 35.6969 39.3466 35.4472C39.2223 35.3581 39.1335 35.3937 39.027 35.5186Z" fill="#C9B493"/>
<path d="M18.3061 42.3298C18.3949 41.9554 18.4837 41.5988 18.5902 41.2422C18.6435 41.0817 18.5902 41.0282 18.4482 40.9569C16.282 40.1188 14.3644 38.8885 12.6598 37.3016C12.0561 36.731 11.4879 36.1426 10.973 35.5007C10.9198 35.4472 10.8842 35.3402 10.7777 35.4116C10.3871 35.6612 9.99646 35.9108 9.60583 36.1605C9.6591 36.2318 9.69461 36.2853 9.74788 36.3388C10.831 37.6761 12.0561 38.8529 13.4411 39.887C14.897 40.9569 16.4595 41.7949 18.1286 42.4368C18.2529 42.4725 18.2884 42.4547 18.3061 42.3298Z" fill="#C9B493"/>
<path d="M31.7294 5.67008C31.6406 6.0267 31.5696 6.40114 31.4631 6.73992C31.4098 6.91823 31.4453 6.98955 31.6229 7.04304C33.7713 7.88108 35.6889 9.09356 37.3757 10.6627C37.9794 11.2332 38.5476 11.8395 39.0803 12.4814C39.1335 12.5527 39.169 12.6418 39.2933 12.5705C39.6662 12.3209 40.0568 12.0891 40.4474 11.8395C40.3942 11.7681 40.3409 11.6968 40.2876 11.6255C39.4886 10.627 38.6009 9.71763 37.6243 8.89742C35.9197 7.47097 34.0199 6.34765 31.9425 5.5631C31.8004 5.52744 31.7472 5.54527 31.7294 5.67008Z" fill="#C9B493"/>
<path d="M10.9553 12.5349C11.1861 12.2674 11.4169 11.9821 11.6477 11.7325C13.5654 9.62848 15.8381 8.05938 18.4837 7.04304C18.608 6.98955 18.6435 6.93606 18.608 6.81124C18.5192 6.45463 18.4304 6.11585 18.3416 5.75924C18.2884 5.52744 18.2884 5.52744 18.0575 5.61659C15.6605 6.54378 13.5298 7.88108 11.6655 9.62848C10.9198 10.3239 10.245 11.0549 9.6236 11.8751C10.0142 12.1248 10.4048 12.3566 10.7777 12.6062C10.8487 12.6597 10.8842 12.6062 10.9553 12.5349Z" fill="#C9B493"/>
<path d="M5.66405 23.2511C6.03692 23.2155 6.39203 23.1976 6.7649 23.1798C6.88919 23.1798 6.9247 23.1442 6.9247 23.0193C6.94246 22.6806 6.96022 22.3418 6.99573 22.003C7.19104 20.0595 7.70595 18.2229 8.50496 16.4398C8.87783 15.6375 9.30396 14.8529 9.78337 14.104C9.81888 14.0327 9.90766 13.9792 9.80112 13.8901C9.48152 13.6226 9.14416 13.3551 8.82456 13.0877C8.75354 13.0342 8.71803 13.0342 8.66476 13.1055C8.59374 13.2303 8.50496 13.3551 8.41618 13.4978C6.62286 16.3685 5.62854 19.4889 5.41547 22.9302C5.41547 22.9302 5.41547 22.9837 5.41547 23.0372C5.39771 23.2333 5.46874 23.2868 5.66405 23.2511Z" fill="#C9B493"/>
<path d="M41.3885 13.1769C41.3174 13.0521 41.2642 13.0521 41.1576 13.1412C40.8735 13.3908 40.5895 13.6405 40.2876 13.8723C40.1633 13.9614 40.1633 14.0327 40.2521 14.1576C40.7315 14.8886 41.1576 15.6732 41.5128 16.4755C42.4538 18.5439 42.9865 20.7192 43.1108 22.9837C43.1108 23.1442 43.1463 23.1977 43.3238 23.2155C43.6257 23.2155 43.9453 23.2512 44.2471 23.269C44.691 23.3047 44.6022 23.3403 44.6022 22.9302C44.5135 21.379 44.2471 19.8634 43.8032 18.3656C43.2528 16.4934 42.436 14.7816 41.3885 13.1769Z" fill="#C9B493"/>
<path d="M6.23224 29.6701C6.78266 31.5067 7.59943 33.2363 8.64701 34.841C8.73579 34.9658 8.78906 34.9658 8.87784 34.8767C9.16193 34.6271 9.44602 34.3774 9.74787 34.1635C9.87216 34.0743 9.87215 34.003 9.78338 33.8782C9.14417 32.8975 8.6115 31.8633 8.18536 30.7756C7.45738 28.9391 7.03124 27.0134 6.92471 25.0342C6.92471 24.9094 6.8892 24.8559 6.76491 24.8559C6.39204 24.8381 6.01917 24.8024 5.6463 24.7846C5.45099 24.7667 5.45099 24.7667 5.45099 24.9807C5.45099 25.052 5.45099 25.1412 5.45099 25.2125C5.53977 26.7103 5.78835 28.208 6.23224 29.6701Z" fill="#C9B493"/>
<path d="M44.3537 24.7489C43.9986 24.7667 43.6435 24.8024 43.2884 24.8202C43.1641 24.8202 43.1108 24.8737 43.1108 24.9985C43.0931 25.4621 43.0398 25.9079 42.9865 26.3537C42.7379 28.2259 42.223 30.0268 41.424 31.7385C41.0867 32.4696 40.6783 33.1828 40.2522 33.8604C40.2166 33.9317 40.1279 33.9852 40.2344 34.0743C40.554 34.3418 40.8914 34.6092 41.211 34.8767C41.282 34.9302 41.3175 34.9302 41.3708 34.8589C41.4418 34.7341 41.5128 34.6271 41.6016 34.5023C43.4127 31.6315 44.407 28.4933 44.6201 25.0342C44.6201 25.0342 44.6201 24.9985 44.6201 24.9451C44.6023 24.7311 44.6023 24.7311 44.3537 24.7489Z" fill="#C9B493"/>
<path d="M4.82953 9.28979C4.82953 9.28979 4.82953 9.30763 4.82953 9.28979C4.82953 9.30763 4.84728 9.30763 4.8828 9.32546C4.8828 9.2898 4.86504 9.28979 4.82953 9.28979Z" fill="#C9B493"/>
<path d="M45.171 38.7459C45.171 38.7459 45.1891 38.7459 45.171 38.7459C45.1891 38.7102 45.1891 38.6924 45.1528 38.6746C45.1347 38.7102 45.1528 38.7281 45.171 38.7459Z" fill="#C9B493"/>
</g>
<defs>
<clipPath id="clip0">
<rect width="50" height="48" fill="white"/>
</clipPath>
</defs>
</svg>
